<svg width="22" height="22" viewBox="0 0 22 22" fill="none" xmlns="http://www.w3.org/2000/svg">
<path d="M5.61874 16.3813C5.61874 14.8953 6.82338 13.6907 8.30937 13.6907H11V16.3813C11 17.8673 9.79536 19.0719 8.30937 19.0719V19.0719C6.82338 19.0719 5.61874 17.8673 5.61874 16.3813V16.3813Z" fill="#2B2F4E"/>
<path d="M11 11.0002C11 9.51422 12.2046 8.30957 13.6906 8.30957V8.30957C15.1766 8.30957 16.3812 9.5142 16.3812 11.0002V11.0002C16.3812 12.4862 15.1766 13.6908 13.6906 13.6908V13.6908C12.2046 13.6908 11 12.4862 11 11.0002V11.0002Z" fill="#2B2F4E"/>
<path d="M5.61874 11C5.61874 12.486 6.82338 13.6907 8.30937 13.6907H11V8.30942H8.30937C6.82338 8.30942 5.61874 9.51406 5.61874 11V11Z" fill="#2B2F4E"/>
<path d="M11 2.92822V8.30947H13.6906C15.1766 8.30947 16.3813 7.10484 16.3813 5.61885V5.61885C16.3813 4.13286 15.1766 2.92822 13.6906 2.92822H11Z" fill="#2B2F4E"/>
<path d="M5.61874 5.61895C5.61874 7.10494 6.82338 8.30957 8.30937 8.30957H11V2.92832L8.30937 2.92832C6.82338 2.92832 5.61874 4.13295 5.61874 5.61895V5.61895Z" fill="#2B2F4E"/>
</svg>
