<?xml version="1.0" encoding="UTF-8"?>
<svg xmlns="http://www.w3.org/2000/svg" xmlns:xlink="http://www.w3.org/1999/xlink" width="21px" height="21px" viewBox="0 0 21 21" version="1.1">
<defs>
<filter id="alpha" filterUnits="objectBoundingBox" x="0%" y="0%" width="100%" height="100%">
  <feColorMatrix type="matrix" in="SourceGraphic" values="0 0 0 0 1 0 0 0 0 1 0 0 0 0 1 0 0 0 1 0"/>
</filter>
<mask id="mask0">
  <g filter="url(#alpha)">
<rect x="0" y="0" width="21" height="21" style="fill:rgb(0%,0%,0%);fill-opacity:0.247059;stroke:none;"/>
  </g>
</mask>
<clipPath id="clip1">
  <rect x="0" y="0" width="21" height="21"/>
</clipPath>
<g id="surface5" clip-path="url(#clip1)">
<path style=" stroke:none;fill-rule:evenodd;fill:rgb(97.647059%,58.823529%,67.843137%);fill-opacity:1;" d="M 20.0625 -0.0390625 C 20.136719 -0.0390625 20.210938 -0.0390625 20.289062 -0.0390625 C 20.175781 0.0546875 20.050781 0.128906 19.914062 0.1875 C 19.933594 0.0898438 19.984375 0.015625 20.0625 -0.0390625 Z M 20.0625 -0.0390625 "/>
</g>
<mask id="mask1">
  <g filter="url(#alpha)">
<rect x="0" y="0" width="21" height="21" style="fill:rgb(0%,0%,0%);fill-opacity:0.380392;stroke:none;"/>
  </g>
</mask>
<clipPath id="clip2">
  <rect x="0" y="0" width="21" height="21"/>
</clipPath>
<g id="surface8" clip-path="url(#clip2)">
<path style=" stroke:none;fill-rule:evenodd;fill:rgb(96.470588%,66.27451%,76.862745%);fill-opacity:1;" d="M 17.960938 1.539062 C 17.925781 1.644531 17.851562 1.691406 17.738281 1.6875 C 17.773438 1.582031 17.847656 1.53125 17.960938 1.539062 Z M 17.960938 1.539062 "/>
</g>
<mask id="mask2">
  <g filter="url(#alpha)">
<rect x="0" y="0" width="21" height="21" style="fill:rgb(0%,0%,0%);fill-opacity:0.384314;stroke:none;"/>
  </g>
</mask>
<clipPath id="clip3">
  <rect x="0" y="0" width="21" height="21"/>
</clipPath>
<g id="surface11" clip-path="url(#clip3)">
<path style=" stroke:none;fill-rule:evenodd;fill:rgb(98.039216%,69.411765%,78.823529%);fill-opacity:1;" d="M 16.988281 2.210938 C 16.953125 2.316406 16.878906 2.367188 16.761719 2.363281 C 16.796875 2.257812 16.871094 2.207031 16.988281 2.210938 Z M 16.988281 2.210938 "/>
</g>
<mask id="mask3">
  <g filter="url(#alpha)">
<rect x="0" y="0" width="21" height="21" style="fill:rgb(0%,0%,0%);fill-opacity:0.368627;stroke:none;"/>
  </g>
</mask>
<clipPath id="clip4">
  <rect x="0" y="0" width="21" height="21"/>
</clipPath>
<g id="surface14" clip-path="url(#clip4)">
<path style=" stroke:none;fill-rule:evenodd;fill:rgb(98.039216%,66.27451%,76.470588%);fill-opacity:1;" d="M 14.886719 3.710938 C 14.851562 3.816406 14.777344 3.867188 14.664062 3.863281 C 14.699219 3.757812 14.773438 3.707031 14.886719 3.710938 Z M 14.886719 3.710938 "/>
</g>
<mask id="mask4">
  <g filter="url(#alpha)">
<rect x="0" y="0" width="21" height="21" style="fill:rgb(0%,0%,0%);fill-opacity:0.372549;stroke:none;"/>
  </g>
</mask>
<clipPath id="clip5">
  <rect x="0" y="0" width="21" height="21"/>
</clipPath>
<g id="surface17" clip-path="url(#clip5)">
<path style=" stroke:none;fill-rule:evenodd;fill:rgb(97.254902%,66.27451%,76.470588%);fill-opacity:1;" d="M 13.914062 4.386719 C 13.878906 4.492188 13.800781 4.542969 13.6875 4.539062 C 13.722656 4.433594 13.796875 4.382812 13.914062 4.386719 Z M 13.914062 4.386719 "/>
</g>
<mask id="mask5">
  <g filter="url(#alpha)">
<rect x="0" y="0" width="21" height="21" style="fill:rgb(0%,0%,0%);fill-opacity:0.384314;stroke:none;"/>
  </g>
</mask>
<clipPath id="clip6">
  <rect x="0" y="0" width="21" height="21"/>
</clipPath>
<g id="surface20" clip-path="url(#clip6)">
<path style=" stroke:none;fill-rule:evenodd;fill:rgb(97.254902%,69.411765%,79.215686%);fill-opacity:1;" d="M 13.613281 4.613281 C 13.578125 4.71875 13.503906 4.769531 13.386719 4.761719 C 13.421875 4.65625 13.496094 4.605469 13.613281 4.613281 Z M 13.613281 4.613281 "/>
</g>
<mask id="mask6">
  <g filter="url(#alpha)">
<rect x="0" y="0" width="21" height="21" style="fill:rgb(0%,0%,0%);fill-opacity:0.0156863;stroke:none;"/>
  </g>
</mask>
<clipPath id="clip7">
  <rect x="0" y="0" width="21" height="21"/>
</clipPath>
<g id="surface23" clip-path="url(#clip7)">
<path style=" stroke:none;fill-rule:evenodd;fill:rgb(98.823529%,54.509804%,67.058824%);fill-opacity:1;" d="M 20.210938 7.613281 C 20.1875 7.789062 20.085938 7.886719 19.914062 7.914062 C 19.988281 7.789062 20.085938 7.6875 20.210938 7.613281 Z M 20.210938 7.613281 "/>
</g>
<mask id="mask7">
  <g filter="url(#alpha)">
<rect x="0" y="0" width="21" height="21" style="fill:rgb(0%,0%,0%);fill-opacity:0.00392157;stroke:none;"/>
  </g>
</mask>
<clipPath id="clip8">
  <rect x="0" y="0" width="21" height="21"/>
</clipPath>
<g id="surface26" clip-path="url(#clip8)">
<path style=" stroke:none;fill-rule:evenodd;fill:rgb(98.431373%,79.215686%,85.882353%);fill-opacity:1;" d="M 18.863281 8.664062 C 18.828125 8.769531 18.753906 8.816406 18.636719 8.8125 C 18.671875 8.707031 18.746094 8.65625 18.863281 8.664062 Z M 18.863281 8.664062 "/>
</g>
<mask id="mask8">
  <g filter="url(#alpha)">
<rect x="0" y="0" width="21" height="21" style="fill:rgb(0%,0%,0%);fill-opacity:0.00392157;stroke:none;"/>
  </g>
</mask>
<clipPath id="clip9">
  <rect x="0" y="0" width="21" height="21"/>
</clipPath>
<g id="surface29" clip-path="url(#clip9)">
<path style=" stroke:none;fill-rule:evenodd;fill:rgb(80%,84.313725%,99.215686%);fill-opacity:1;" d="M 7.085938 17.960938 C 7.050781 18.066406 6.976562 18.117188 6.863281 18.113281 C 6.898438 18.007812 6.972656 17.957031 7.085938 17.960938 Z M 7.085938 17.960938 "/>
</g>
<mask id="mask9">
  <g filter="url(#alpha)">
<rect x="0" y="0" width="21" height="21" style="fill:rgb(0%,0%,0%);fill-opacity:0.00392157;stroke:none;"/>
  </g>
</mask>
<clipPath id="clip10">
  <rect x="0" y="0" width="21" height="21"/>
</clipPath>
<g id="surface32" clip-path="url(#clip10)">
<path style=" stroke:none;fill-rule:evenodd;fill:rgb(79.215686%,84.705882%,98.431373%);fill-opacity:1;" d="M 6.789062 18.1875 C 6.753906 18.292969 6.675781 18.34375 6.5625 18.335938 C 6.597656 18.230469 6.671875 18.183594 6.789062 18.1875 Z M 6.789062 18.1875 "/>
</g>
</defs>
<g id="surface1">
<path style=" stroke:none;fill-rule:evenodd;fill:rgb(17.254902%,18.823529%,31.372549%);fill-opacity:1;" d="M 0.1875 -0.0390625 C 0.386719 -0.0390625 0.585938 -0.0390625 0.789062 -0.0390625 C 3.488281 1.914062 6.214844 3.835938 8.960938 5.738281 C 9.429688 6.167969 9.742188 6.691406 9.898438 7.3125 C 9.949219 9.914062 9.949219 12.511719 9.898438 15.113281 C 9.695312 15.914062 9.257812 16.550781 8.585938 17.023438 C 8.078125 17.324219 7.578125 17.636719 7.085938 17.960938 C 6.972656 17.957031 6.898438 18.007812 6.863281 18.113281 C 6.863281 18.164062 6.835938 18.1875 6.789062 18.1875 C 6.671875 18.183594 6.597656 18.230469 6.5625 18.335938 C 5.359375 19.242188 4.132812 20.117188 2.886719 20.960938 C 2.761719 20.960938 2.636719 20.960938 2.511719 20.960938 C 2.34375 20.898438 2.230469 20.773438 2.175781 20.585938 C 2.125 18.636719 2.125 16.6875 2.175781 14.738281 C 2.320312 13.933594 2.707031 13.269531 3.335938 12.75 C 3.78125 12.433594 4.246094 12.144531 4.726562 11.886719 C 5.898438 12.363281 7.085938 12.773438 8.289062 13.125 C 5.859375 11.371094 3.410156 9.644531 0.9375 7.949219 C 0.46875 7.523438 0.144531 7.011719 -0.0390625 6.414062 C -0.0390625 4.335938 -0.0390625 2.261719 -0.0390625 0.1875 C 0.0390625 0.113281 0.113281 0.0390625 0.1875 -0.0390625 Z M 0.1875 -0.0390625 "/>
<path style=" stroke:none;fill-rule:evenodd;fill:rgb(18.431373%,18.823529%,30.980392%);fill-opacity:1;" d="M 20.289062 -0.0390625 C 20.414062 -0.0390625 20.539062 -0.0390625 20.664062 -0.0390625 C 20.789062 0.0390625 20.886719 0.136719 20.960938 0.261719 C 20.960938 2.210938 20.960938 4.164062 20.960938 6.113281 C 20.828125 6.574219 20.640625 7.023438 20.398438 7.460938 C 20.347656 7.527344 20.285156 7.578125 20.210938 7.613281 C 20.085938 7.6875 19.988281 7.789062 19.914062 7.914062 C 19.589844 8.199219 19.242188 8.449219 18.863281 8.664062 C 18.746094 8.65625 18.671875 8.707031 18.636719 8.8125 C 17.820312 9.449219 16.96875 10.046875 16.085938 10.613281 C 15.382812 10.355469 14.683594 10.09375 13.988281 9.824219 C 13.617188 9.675781 13.242188 9.578125 12.863281 9.523438 C 14.570312 10.710938 16.257812 11.921875 17.925781 13.164062 C 18.316406 13.621094 18.566406 14.148438 18.675781 14.738281 C 18.726562 16.6875 18.726562 18.636719 18.675781 20.585938 C 18.597656 20.75 18.484375 20.875 18.335938 20.960938 C 18.1875 20.960938 18.039062 20.960938 17.886719 20.960938 C 15.867188 19.515625 13.839844 18.066406 11.8125 16.613281 C 11.417969 16.242188 11.15625 15.792969 11.023438 15.261719 C 10.941406 13.929688 10.902344 12.589844 10.914062 11.25 C 10.902344 9.882812 10.941406 8.523438 11.023438 7.164062 C 11.167969 6.753906 11.367188 6.378906 11.625 6.039062 C 12.183594 5.566406 12.769531 5.140625 13.386719 4.761719 C 13.503906 4.769531 13.578125 4.71875 13.613281 4.613281 C 13.613281 4.5625 13.636719 4.539062 13.6875 4.539062 C 13.800781 4.542969 13.878906 4.492188 13.914062 4.386719 C 14.140625 4.183594 14.390625 4.007812 14.664062 3.863281 C 14.777344 3.867188 14.851562 3.816406 14.886719 3.710938 C 15.46875 3.207031 16.09375 2.757812 16.761719 2.363281 C 16.878906 2.367188 16.953125 2.316406 16.988281 2.210938 C 17.214844 2.007812 17.464844 1.832031 17.738281 1.6875 C 17.851562 1.691406 17.925781 1.644531 17.960938 1.539062 C 18.421875 1.164062 18.898438 0.800781 19.386719 0.449219 C 19.542969 0.320312 19.71875 0.234375 19.914062 0.1875 C 20.050781 0.128906 20.175781 0.0546875 20.289062 -0.0390625 Z M 20.289062 -0.0390625 "/>
<use xlink:href="#surface5" mask="url(#mask0)"/>
<use xlink:href="#surface8" mask="url(#mask1)"/>
<use xlink:href="#surface11" mask="url(#mask2)"/>
<use xlink:href="#surface14" mask="url(#mask3)"/>
<use xlink:href="#surface17" mask="url(#mask4)"/>
<use xlink:href="#surface20" mask="url(#mask5)"/>
<use xlink:href="#surface23" mask="url(#mask6)"/>
<use xlink:href="#surface26" mask="url(#mask7)"/>
<use xlink:href="#surface29" mask="url(#mask8)"/>
<use xlink:href="#surface32" mask="url(#mask9)"/>
</g>
</svg>
